<?xml version="1.0" encoding="utf-8"?><svg xmlns="http://www.w3.org/2000/svg" xmlns:xlink="http://www.w3.org/1999/xlink" width="884" height="519" preserveAspectRatio="xMidYMid" viewBox="0 0 884 519" style="z-index:1;display:block;background-color:rgb(241, 242, 243);animation-play-state:paused" ><g transform="" style="animation-play-state:paused" ><g id="bk-0.0011078655662343229" style="animation-play-state:paused" ><path d="M491 287L541 80L234 29z" stroke="#0b50af" fill="#0b50af" style="animation-play-state:paused" ></path>
<path d="M234 29L249 301L491 287z" stroke="#0b4fad" fill="#0b4fad" style="animation-play-state:paused" ></path>
<path d="M541 80L341 -120L234 29z" stroke="#0a57b8" fill="#0a57b8" style="animation-play-state:paused" ></path>
<path d="M802 -171L592 -125L541 80z" stroke="#0a56b8" fill="#0a56b8" style="animation-play-state:paused" ></path>
<path d="M541 80L592 -125L341 -120z" stroke="#0a57b9" fill="#0a57b9" style="animation-play-state:paused" ></path>
<path d="M341 -120L110 -95L234 29z" stroke="#085bbf" fill="#085bbf" style="animation-play-state:paused" ></path>
<path d="M234 29L18 69L249 301z" stroke="#0a55b6" fill="#0a55b6" style="animation-play-state:paused" ></path>
<path d="M110 -95L18 69L234 29z" stroke="#095abe" fill="#095abe" style="animation-play-state:paused" ></path>
<path d="M18 69L102 410L249 301z" stroke="#0b51b0" fill="#0b51b0" style="animation-play-state:paused" ></path>
<path d="M249 301L289 596L491 287z" stroke="#0b48a3" fill="#0b48a3" style="animation-play-state:paused" ></path>
<path d="M102 410L289 596L249 301z" stroke="#0b4aa6" fill="#0b4aa6" style="animation-play-state:paused" ></path>
<path d="M865 404L880 163L491 287z" stroke="#0b46a0" fill="#0b46a0" style="animation-play-state:paused" ></path>
<path d="M491 287L880 163L541 80z" stroke="#0b4ba8" fill="#0b4ba8" style="animation-play-state:paused" ></path>
<path d="M880 163L802 -171L541 80z" stroke="#0b51b0" fill="#0b51b0" style="animation-play-state:paused" ></path>
<path d="M592 -125L802 -171L341 -120z" stroke="#095abd" fill="#095abd" style="animation-play-state:paused" ></path>
<path d="M341 -120L-261 -210L110 -95z" stroke="#0661c7" fill="#0661c7" style="animation-play-state:paused" ></path>
<path d="M608 660L865 404L491 287z" stroke="#0a4098" fill="#0a4098" style="animation-play-state:paused" ></path>
<path d="M289 596L608 660L491 287z" stroke="#0a429a" fill="#0a429a" style="animation-play-state:paused" ></path>
<path d="M-236 583L67 630L102 410z" stroke="#0b4daa" fill="#0b4daa" style="animation-play-state:paused" ></path>
<path d="M102 410L67 630L289 596z" stroke="#0b48a4" fill="#0b48a4" style="animation-play-state:paused" ></path>
<path d="M289 596L224 787L608 660z" stroke="#0a4097" fill="#0a4097" style="animation-play-state:paused" ></path>
<path d="M-261 -210L-250 58L18 69z" stroke="#0661c7" fill="#0661c7" style="animation-play-state:paused" ></path>
<path d="M18 69L-245 319L102 410z" stroke="#0a55b5" fill="#0a55b5" style="animation-play-state:paused" ></path>
<path d="M880 163L997 24L802 -171z" stroke="#0b51b0" fill="#0b51b0" style="animation-play-state:paused" ></path>
<path d="M1078 361L997 24L880 163z" stroke="#0b48a4" fill="#0b48a4" style="animation-play-state:paused" ></path>
<path d="M-250 58L-245 319L18 69z" stroke="#085bbf" fill="#085bbf" style="animation-play-state:paused" ></path>
<path d="M67 630L224 787L289 596z" stroke="#0b459e" fill="#0b459e" style="animation-play-state:paused" ></path>
<path d="M608 660L856 651L865 404z" stroke="#093a8e" fill="#093a8e" style="animation-play-state:paused" ></path>
<path d="M865 404L1078 361L880 163z" stroke="#0b439c" fill="#0b439c" style="animation-play-state:paused" ></path>
<path d="M843 894L856 651L608 660z" stroke="#073587" fill="#073587" style="animation-play-state:paused" ></path>
<path d="M110 -95L-261 -210L18 69z" stroke="#0661c7" fill="#0661c7" style="animation-play-state:paused" ></path>
<path d="M-250 58L-261 -210L-245 319z" stroke="#0660c6" fill="#0660c6" style="animation-play-state:paused" ></path>
<path d="M802 -171L-261 -210L341 -120z" stroke="#075fc4" fill="#075fc4" style="animation-play-state:paused" ></path>
<path d="M1078 617L1078 361L865 404z" stroke="#093c91" fill="#093c91" style="animation-play-state:paused" ></path>
<path d="M-245 319L-236 583L102 410z" stroke="#0b52b2" fill="#0b52b2" style="animation-play-state:paused" ></path>
<path d="M67 630L107 926L224 787z" stroke="#0b459f" fill="#0b459f" style="animation-play-state:paused" ></path>
<path d="M997 24L1132 -97L802 -171z" stroke="#0a55b5" fill="#0a55b5" style="animation-play-state:paused" ></path>
<path d="M1078 361L1132 -97L997 24z" stroke="#0b4ca9" fill="#0b4ca9" style="animation-play-state:paused" ></path>
<path d="M-248 827L107 926L67 630z" stroke="#0b49a5" fill="#0b49a5" style="animation-play-state:paused" ></path>
<path d="M224 787L624 932L608 660z" stroke="#093b90" fill="#093b90" style="animation-play-state:paused" ></path>
<path d="M107 926L624 932L224 787z" stroke="#0a3f96" fill="#0a3f96" style="animation-play-state:paused" ></path>
<path d="M856 651L1078 617L865 404z" stroke="#08388c" fill="#08388c" style="animation-play-state:paused" ></path>
<path d="M1078 361L1078 617L1132 -97z" stroke="#0b439c" fill="#0b439c" style="animation-play-state:paused" ></path>
<path d="M1061 856L1078 617L856 651z" stroke="#063282" fill="#063282" style="animation-play-state:paused" ></path>
<path d="M624 932L843 894L608 660z" stroke="#073587" fill="#073587" style="animation-play-state:paused" ></path>
<path d="M-245 319L-248 827L-236 583z" stroke="#0b52b2" fill="#0b52b2" style="animation-play-state:paused" ></path>
<path d="M-236 583L-248 827L67 630z" stroke="#0b4eac" fill="#0b4eac" style="animation-play-state:paused" ></path>
<path d="M-261 -210L-248 827L-245 319z" stroke="#0958bb" fill="#0958bb" style="animation-play-state:paused" ></path>
<path d="M624 932L1061 856L843 894z" stroke="#06307f" fill="#06307f" style="animation-play-state:paused" ></path>
<path d="M843 894L1061 856L856 651z" stroke="#06307f" fill="#06307f" style="animation-play-state:paused" ></path>
<path d="M1078 617L1061 856L1132 -97z" stroke="#093c91" fill="#093c91" style="animation-play-state:paused" ></path></g>
<style type="text/css" style="animation-play-state:paused" >#bk-0.0011078655662343229 path { stroke-width: 1 }</style></g></svg>
