<svg width="49" height="48" viewBox="0 0 49 48" fill="none" xmlns="http://www.w3.org/2000/svg">
<path d="M0.5 24C0.5 10.7452 11.2452 0 24.5 0C37.7548 0 48.5 10.7452 48.5 24C48.5 37.2548 37.7548 48 24.5 48C11.2452 48 0.5 37.2548 0.5 24Z" fill="white"/>
<path fill-rule="evenodd" clip-rule="evenodd" d="M29.7669 9.59998C30.0182 11.3066 29.3235 12.9785 28.4072 14.1614C27.4268 15.4303 25.7369 16.4116 24.0996 16.3604C23.8007 14.7265 24.566 13.043 25.4972 11.9113C26.5186 10.6623 28.2692 9.70406 29.7669 9.59998ZM34.6854 33.6216C35.5295 32.328 35.8448 31.6754 36.5 30.2149C31.7343 28.4026 30.9707 21.6273 35.6871 19.0269C34.2485 17.2228 32.227 16.177 30.3187 16.177C28.9437 16.177 28.0016 16.5358 27.1452 16.862C26.4315 17.1339 25.7772 17.383 24.9815 17.383C24.1216 17.383 23.3601 17.11 22.5628 16.8241C21.6866 16.51 20.7672 16.1803 19.6262 16.1803C17.4848 16.1803 15.2054 17.4888 13.7602 19.7257C11.7288 22.8763 12.0753 28.7991 15.3696 33.8446C16.5471 35.6504 18.1203 37.6792 20.178 37.6973C21.0318 37.7058 21.6 37.451 22.2148 37.1752C22.9186 36.8596 23.6834 36.5165 25.0078 36.5095C26.3399 36.5015 27.0927 36.8487 27.7871 37.169C28.3862 37.4453 28.9417 37.7016 29.7883 37.6924C31.8476 37.6759 33.5079 35.4273 34.6854 33.6216Z" fill="#0B0B0A"/>
</svg>
