<svg width="49" height="48" viewBox="0 0 49 48" fill="none" xmlns="http://www.w3.org/2000/svg">
<path d="M0.5 24C0.5 10.7452 11.2452 0 24.5 0C37.7548 0 48.5 10.7452 48.5 24C48.5 37.2548 37.7548 48 24.5 48C11.2452 48 0.5 37.2548 0.5 24Z" fill="#F26798"/>
<path fill-rule="evenodd" clip-rule="evenodd" d="M37.3 23.9822C37.3 24.8478 37.2119 25.7123 37.0388 26.5549C36.87 27.3775 36.62 28.1851 36.2925 28.9572C35.9725 29.7155 35.5756 30.4464 35.1118 31.1279C34.655 31.8051 34.1287 32.4405 33.5505 33.0196C32.9711 33.5963 32.3336 34.1212 31.6566 34.58C30.9729 35.0405 30.241 35.4369 29.4822 35.7583C28.709 36.0841 27.8996 36.3338 27.0777 36.5023C26.2339 36.6758 25.3663 36.7644 24.4994 36.7644C23.6319 36.7644 22.7644 36.6758 21.9218 36.5023C21.0987 36.3338 20.2892 36.0841 19.5167 35.7583C18.7579 35.4369 18.0254 35.0405 17.3416 34.58C16.6647 34.1212 16.0271 33.5963 15.449 33.0196C14.8702 32.4405 14.3439 31.8051 13.8864 31.1279C13.4251 30.4464 13.0276 29.7155 12.7063 28.9572C12.3788 28.1851 12.1282 27.3775 11.9588 26.5549C11.7875 25.7123 11.7 24.8478 11.7 23.9822C11.7 23.1159 11.7875 22.2496 11.9588 21.4089C12.1282 20.5862 12.3788 19.7774 12.7064 19.0066C13.0276 18.2477 13.4252 17.5162 13.8864 16.8346C14.344 16.1568 14.8703 15.5227 15.449 14.9429C16.0272 14.3661 16.6647 13.8425 17.3416 13.3844C18.0254 12.9219 18.758 12.5256 19.5167 12.2036C20.2893 11.8771 21.0987 11.6268 21.9219 11.4596C22.7644 11.2874 23.6319 11.2 24.4995 11.2C25.3664 11.2 26.2339 11.2874 27.0777 11.4596C27.8996 11.6269 28.709 11.8771 29.4822 12.2036C30.241 12.5256 30.9729 12.9219 31.6567 13.3844C32.3336 13.8425 32.9712 14.3661 33.5505 14.9429C34.1287 15.5227 34.655 16.1568 35.1119 16.8346C35.5756 17.5162 35.9725 18.2477 36.2925 19.0066C36.62 19.7774 36.87 20.5862 37.0388 21.4089C37.2119 22.2496 37.3 23.1159 37.3 23.9822ZM19.8354 14.109C16.7871 15.5465 14.512 18.3513 13.8026 21.7316L13.8131 21.7317C14.1867 21.7351 18.7012 21.7769 23.8944 20.399C22.0024 17.0424 19.9811 14.3032 19.8354 14.109ZM13.577 23.634C13.7707 23.6414 19.1716 23.7625 24.8 22.0799C25.1132 22.6928 25.4126 23.3144 25.687 23.9348C25.5432 23.976 25.3982 24.0184 25.2557 24.0659C19.3567 25.9707 16.3652 31.2702 16.369 31.2758C14.6276 29.3428 13.5682 26.7864 13.5682 23.9822C13.5682 23.9013 13.5709 23.8221 13.5736 23.7423L13.5736 23.7423L13.5736 23.7423L13.5736 23.7422L13.5736 23.7422L13.5736 23.7422C13.5748 23.7063 13.576 23.6703 13.577 23.634ZM31.7186 15.7898C29.7941 14.0953 27.2671 13.0674 24.4994 13.0674C23.6113 13.0674 22.7493 13.1748 21.9237 13.3732L21.9414 13.397L21.9414 13.397L21.9415 13.397L21.9415 13.397C22.2004 13.7434 24.1922 16.4073 26.0101 19.7406C30.101 18.2091 31.666 15.8684 31.7176 15.7913L31.7186 15.7898ZM26.4055 25.752L26.432 25.7435C27.9702 29.7354 28.6052 33.0783 28.7671 34.032C27.4552 34.5892 26.0132 34.897 24.4994 34.897C21.9643 34.897 19.6367 34.0276 17.7809 32.5865C17.8037 32.5371 19.9099 28.0124 26.3595 25.7672C26.3747 25.7617 26.39 25.7568 26.4055 25.752ZM30.6079 33.0346C33.0624 31.3807 34.8056 28.7543 35.2918 25.7122C35.0668 25.6398 32.0085 24.673 28.4802 25.2379C29.914 29.1725 30.4966 32.3768 30.6079 33.0346ZM27.5777 22.9499C27.3509 22.4174 27.1052 21.8876 26.8515 21.3671C31.1396 19.6183 32.8979 17.1098 32.9406 17.049L32.9412 17.0481C34.4749 18.9073 35.4019 21.2822 35.4269 23.8698C35.4239 23.8692 35.4195 23.8683 35.4139 23.8671C35.127 23.8074 31.4973 23.0525 27.814 23.5153C27.7371 23.3281 27.6584 23.1409 27.5777 22.9499Z" fill="white"/>
</svg>
