<svg width="49" height="48" viewBox="0 0 49 48" fill="none" xmlns="http://www.w3.org/2000/svg">
<path d="M0.5 24C0.5 10.7452 11.2452 0 24.5 0C37.7548 0 48.5 10.7452 48.5 24C48.5 37.2548 37.7548 48 24.5 48C11.2452 48 0.5 37.2548 0.5 24Z" fill="#333333"/>
<path d="M19.7 38.4C22.351 38.4 24.5 36.251 24.5 33.6V28.8H19.7C17.049 28.8 14.9 30.9491 14.9 33.6C14.9 36.251 17.049 38.4 19.7 38.4Z" fill="#0ACF83"/>
<path d="M14.9 24C14.9 21.349 17.049 19.2 19.7 19.2H24.5V28.8H19.7C17.049 28.8 14.9 26.6509 14.9 24Z" fill="#A259FF"/>
<path d="M14.9 14.4C14.9 11.749 17.049 9.59998 19.7 9.59998H24.5V19.2H19.7C17.049 19.2 14.9 17.0509 14.9 14.4Z" fill="#F24E1E"/>
<path d="M24.5 9.59998H29.3C31.951 9.59998 34.1 11.749 34.1 14.4C34.1 17.0509 31.951 19.2 29.3 19.2H24.5V9.59998Z" fill="#FF7262"/>
<path d="M34.1 24C34.1 26.6509 31.951 28.8 29.3 28.8C26.649 28.8 24.5 26.6509 24.5 24C24.5 21.349 26.649 19.2 29.3 19.2C31.951 19.2 34.1 21.349 34.1 24Z" fill="#1ABCFE"/>
</svg>
