<svg width="48" height="48" viewBox="0 0 48 48" fill="none" xmlns="http://www.w3.org/2000/svg">
<circle cx="24" cy="24" r="24" fill="white"/>
<mask id="mask0" mask-type="alpha" maskUnits="userSpaceOnUse" x="13" y="9" width="22" height="30">
<path d="M26.559 9H15.0339C13.9152 9 13 9.90767 13 11.017V36.5663C13 37.6757 13.9152 38.5833 15.0339 38.5833H32.6606C33.7792 38.5833 34.6944 37.6757 34.6944 36.5663V17.0682L26.559 9Z" fill="white"/>
</mask>
<g mask="url(#mask0)">
<path d="M26.559 9H15.0339C13.9152 9 13 9.90767 13 11.017V36.5663C13 37.6757 13.9152 38.5833 15.0339 38.5833H32.6606C33.7792 38.5833 34.6944 37.6757 34.6944 36.5663V17.0682L29.9488 13.7064L26.559 9Z" fill="#673AB7"/>
</g>
<mask id="mask1" mask-type="alpha" maskUnits="userSpaceOnUse" x="13" y="9" width="22" height="30">
<path d="M26.559 9H15.0339C13.9152 9 13 9.90767 13 11.017V36.5663C13 37.6757 13.9152 38.5833 15.0339 38.5833H32.6606C33.7792 38.5833 34.6944 37.6757 34.6944 36.5663V17.0682L26.559 9Z" fill="white"/>
</mask>
<g mask="url(#mask1)">
<path d="M21.8134 31.8599H29.2708V30.5152H21.8134V31.8599ZM21.8134 23.7917V25.1364H29.2708V23.7917H21.8134ZM20.1185 24.464C20.1185 25.0204 19.6626 25.4726 19.1016 25.4726C18.5406 25.4726 18.0846 25.0204 18.0846 24.464C18.0846 23.9077 18.5406 23.4555 19.1016 23.4555C19.6626 23.4555 20.1185 23.9077 20.1185 24.464ZM20.1185 27.8258C20.1185 28.3821 19.6626 28.8343 19.1016 28.8343C18.5406 28.8343 18.0846 28.3821 18.0846 27.8258C18.0846 27.2694 18.5406 26.8172 19.1016 26.8172C19.6626 26.8172 20.1185 27.2694 20.1185 27.8258ZM20.1185 31.1875C20.1185 31.7439 19.6626 32.196 19.1016 32.196C18.5406 32.196 18.0846 31.7439 18.0846 31.1875C18.0846 30.6311 18.5406 30.179 19.1016 30.179C19.6626 30.179 20.1185 30.6311 20.1185 31.1875ZM21.8134 28.4981H29.2708V27.1534H21.8134V28.4981Z" fill="#F1F1F1"/>
</g>
<mask id="mask2" mask-type="alpha" maskUnits="userSpaceOnUse" x="13" y="9" width="22" height="30">
<path d="M26.559 9H15.0339C13.9152 9 13 9.90767 13 11.017V36.5663C13 37.6757 13.9152 38.5833 15.0339 38.5833H32.6606C33.7792 38.5833 34.6944 37.6757 34.6944 36.5663V17.0682L26.559 9Z" fill="white"/>
</mask>
<g mask="url(#mask2)">
<path d="M27.1539 16.4782L34.6944 23.9547V17.0682L27.1539 16.4782Z" fill="url(#paint0_linear)"/>
</g>
<mask id="mask3" mask-type="alpha" maskUnits="userSpaceOnUse" x="13" y="9" width="22" height="30">
<path d="M26.559 9H15.0339C13.9152 9 13 9.90767 13 11.017V36.5663C13 37.6757 13.9152 38.5833 15.0339 38.5833H32.6606C33.7792 38.5833 34.6944 37.6757 34.6944 36.5663V17.0682L26.559 9Z" fill="white"/>
</mask>
<g mask="url(#mask3)">
<path d="M26.559 9V15.0511C26.559 16.1656 27.4692 17.0682 28.5929 17.0682H34.6944L26.559 9Z" fill="#B39DDB"/>
</g>
<mask id="mask4" mask-type="alpha" maskUnits="userSpaceOnUse" x="13" y="9" width="22" height="30">
<path d="M26.559 9H15.0339C13.9152 9 13 9.90767 13 11.017V36.5663C13 37.6757 13.9152 38.5833 15.0339 38.5833H32.6606C33.7792 38.5833 34.6944 37.6757 34.6944 36.5663V17.0682L26.559 9Z" fill="white"/>
</mask>
<g mask="url(#mask4)">
<path d="M15.0339 9C13.9152 9 13 9.90767 13 11.017V11.1851C13 10.0758 13.9152 9.16809 15.0339 9.16809H26.559V9H15.0339Z" fill="white" fill-opacity="0.2"/>
</g>
<mask id="mask5" mask-type="alpha" maskUnits="userSpaceOnUse" x="13" y="9" width="22" height="30">
<path d="M26.559 9H15.0339C13.9152 9 13 9.90767 13 11.017V36.5663C13 37.6757 13.9152 38.5833 15.0339 38.5833H32.6606C33.7792 38.5833 34.6944 37.6757 34.6944 36.5663V17.0682L26.559 9Z" fill="white"/>
</mask>
<g mask="url(#mask5)">
<path d="M32.6606 38.4152H15.0339C13.9152 38.4152 13 37.5076 13 36.3982V36.5663C13 37.6757 13.9152 38.5833 15.0339 38.5833H32.6606C33.7792 38.5833 34.6944 37.6757 34.6944 36.5663V36.3982C34.6944 37.5076 33.7792 38.4152 32.6606 38.4152Z" fill="#311B92" fill-opacity="0.2"/>
</g>
<mask id="mask6" mask-type="alpha" maskUnits="userSpaceOnUse" x="13" y="9" width="22" height="30">
<path d="M26.559 9H15.0339C13.9152 9 13 9.90767 13 11.017V36.5663C13 37.6757 13.9152 38.5833 15.0339 38.5833H32.6606C33.7792 38.5833 34.6944 37.6757 34.6944 36.5663V17.0682L26.559 9Z" fill="white"/>
</mask>
<g mask="url(#mask6)">
<path d="M28.5929 17.0682C27.4692 17.0682 26.559 16.1656 26.559 15.0511V15.2192C26.559 16.3337 27.4692 17.2363 28.5929 17.2363H34.6944V17.0682H28.5929Z" fill="#311B92" fill-opacity="0.1"/>
</g>
<path d="M26.559 9H15.0339C13.9152 9 13 9.90767 13 11.017V36.5663C13 37.6757 13.9152 38.5833 15.0339 38.5833H32.6606C33.7792 38.5833 34.6944 37.6757 34.6944 36.5663V17.0682L26.559 9Z" fill="url(#paint1_radial)"/>
<defs>
<linearGradient id="paint0_linear" x1="30.9246" y1="17.1202" x2="30.9246" y2="23.9558" gradientUnits="userSpaceOnUse">
<stop stop-color="#311B92" stop-opacity="0.2"/>
<stop offset="1" stop-color="#311B92" stop-opacity="0.02"/>
</linearGradient>
<radialGradient id="paint1_radial" cx="0" cy="0" r="1" gradientUnits="userSpaceOnUse" gradientTransform="translate(13.6873 9.58803) scale(34.982 34.6929)">
<stop stop-color="white" stop-opacity="0.1"/>
<stop offset="1" stop-color="white" stop-opacity="0"/>
</radialGradient>
</defs>
</svg>
