<svg width="195" height="44" viewBox="0 0 195 44" fill="none" xmlns="http://www.w3.org/2000/svg">
<path d="M27.2287 0L20.6748 19.6256L27.8553 43.4694H16.0522L11.4254 24.8279V43.4694H0V0H11.4254V16.9074L16.5115 0H27.2287Z" fill="white"/>
<path d="M33.2547 0H52.3028V8.69649H44.6758V16.9334H51.8135V25.2094H44.6758V34.747H53.0625V43.4478H33.2547V0Z" fill="white"/>
<path d="M57.2043 0H76.2524V8.69649H68.6255V16.9334H75.7631V25.2094H68.6255V34.747H77.0121V43.4478H57.2043V0Z" fill="white"/>
<path d="M82.4415 0H90.9913C96.5108 0 100.242 0.249999 102.185 0.749997C104.128 1.24999 105.607 2.07369 106.623 3.22108C107.597 4.29112 108.254 5.61595 108.52 7.04476C108.772 8.45516 108.899 11.2167 108.902 15.3294V30.5504C108.902 34.4522 108.716 37.0533 108.344 38.3539C108.04 39.5654 107.36 40.6469 106.404 41.4406C105.396 42.2245 104.22 42.7577 102.97 42.9969C100.945 43.3449 98.8906 43.4901 96.837 43.4304H82.4415V0ZM93.8627 7.43494V36.0258C95.5108 36.0258 96.5237 35.6993 96.9014 35.0461C97.2791 34.3929 97.4694 32.6169 97.4723 29.7181V12.8323C97.5148 11.5676 97.4516 10.3016 97.2834 9.04765C97.2352 8.79372 97.1336 8.55319 96.9856 8.34229C96.8375 8.13139 96.6463 7.95503 96.425 7.82511C95.9643 7.56499 95.1102 7.43494 93.8627 7.43494Z" fill="white"/>
<path d="M134.191 0L140.723 43.4651H129.049L128.435 35.6617H124.349L123.662 43.4651H111.855L117.679 0H134.191ZM128.139 27.945C127.567 23.0317 126.986 16.9465 126.396 9.68926C125.232 18.0129 124.501 24.0982 124.203 27.945H128.139Z" fill="white"/>
<path d="M165.673 0V8.69649H158.891V43.4651H147.479V8.69649H140.723V0H165.673Z" fill="white"/>
<path d="M188.026 0L194.558 43.4651H182.884L182.27 35.6617H178.184L177.497 43.4651H165.673L171.514 0H188.026ZM181.982 27.945C181.41 23.0317 180.831 16.9465 180.244 9.68926C179.08 18.0129 178.348 24.0982 178.051 27.945H181.982Z" fill="white"/>
</svg>
