<svg width="20" height="20" viewBox="0 0 20 20" fill="none" xmlns="http://www.w3.org/2000/svg">
<g clip-path="url(#clip0)">
<path fill-rule="evenodd" clip-rule="evenodd" d="M10.795 4.375C10.795 4.20924 10.7292 4.05027 10.6119 3.93306C10.4947 3.81585 10.3358 3.75 10.17 3.75H1.875C1.37772 3.75 0.900805 3.94754 0.549175 4.29917C0.197544 4.65081 0 5.12772 0 5.625L0 18.125C0 18.6223 0.197544 19.0992 0.549175 19.4508C0.900805 19.8025 1.37772 20 1.875 20H14.375C14.8723 20 15.3492 19.8025 15.7008 19.4508C16.0525 19.0992 16.25 18.6223 16.25 18.125V9.83C16.25 9.66424 16.1842 9.50527 16.0669 9.38806C15.9497 9.27085 15.7908 9.205 15.625 9.205C15.4592 9.205 15.3003 9.27085 15.1831 9.38806C15.0658 9.50527 15 9.66424 15 9.83V18.125C15 18.2908 14.9342 18.4497 14.8169 18.5669C14.6997 18.6842 14.5408 18.75 14.375 18.75H1.875C1.70924 18.75 1.55027 18.6842 1.43306 18.5669C1.31585 18.4497 1.25 18.2908 1.25 18.125V5.625C1.25 5.45924 1.31585 5.30027 1.43306 5.18306C1.55027 5.06585 1.70924 5 1.875 5H10.17C10.3358 5 10.4947 4.93415 10.6119 4.81694C10.7292 4.69973 10.795 4.54076 10.795 4.375Z" fill="white"/>
<path fill-rule="evenodd" clip-rule="evenodd" d="M20.0008 0.625C20.0008 0.45924 19.9349 0.300269 19.8177 0.183058C19.7005 0.065848 19.5415 0 19.3758 0L13.1258 0C12.96 0 12.801 0.065848 12.6838 0.183058C12.5666 0.300269 12.5008 0.45924 12.5008 0.625C12.5008 0.79076 12.5666 0.949732 12.6838 1.06694C12.801 1.18415 12.96 1.25 13.1258 1.25H17.867L7.68325 11.4325C7.62514 11.4906 7.57905 11.5596 7.5476 11.6355C7.51615 11.7114 7.49996 11.7928 7.49996 11.875C7.49996 11.9572 7.51615 12.0386 7.5476 12.1145C7.57905 12.1904 7.62514 12.2594 7.68325 12.3175C7.74136 12.3756 7.81035 12.4217 7.88627 12.4532C7.9622 12.4846 8.04357 12.5008 8.12575 12.5008C8.20793 12.5008 8.28931 12.4846 8.36523 12.4532C8.44116 12.4217 8.51014 12.3756 8.56825 12.3175L18.7508 2.13375V6.875C18.7508 7.04076 18.8166 7.19973 18.9338 7.31694C19.051 7.43415 19.21 7.5 19.3758 7.5C19.5415 7.5 19.7005 7.43415 19.8177 7.31694C19.9349 7.19973 20.0008 7.04076 20.0008 6.875V0.625Z" fill="white"/>
</g>
<defs>
<clipPath id="clip0">
<rect width="20" height="20" fill="white"/>
</clipPath>
</defs>
</svg>
