<svg width="204" height="48" viewBox="0 0 204 48" fill="none" xmlns="http://www.w3.org/2000/svg">
<path d="M0 24C0 10.7452 10.7452 0 24 0C37.2548 0 48 10.7452 48 24C48 37.2548 37.2548 48 24 48C10.7452 48 0 37.2548 0 24Z" fill="#0077B5"/>
<path fill-rule="evenodd" clip-rule="evenodd" d="M17.3187 14.8227C17.3187 16.3918 16.1376 17.6473 14.2411 17.6473H14.2064C12.3804 17.6473 11.2 16.3918 11.2 14.8227C11.2 13.2204 12.4164 12 14.277 12C16.1376 12 17.2834 13.2204 17.3187 14.8227ZM16.9605 19.8778V36.2196H11.5216V19.8778H16.9605ZM36.5751 36.2196L36.5753 26.8497C36.5753 21.8303 33.8922 19.4941 30.3131 19.4941C27.4254 19.4941 26.1325 21.0802 25.4106 22.1929V19.8783H19.9711C20.0427 21.4117 19.9711 36.22 19.9711 36.22H25.4106V27.0934C25.4106 26.605 25.4459 26.1178 25.5897 25.7681C25.9828 24.7924 26.8778 23.7822 28.3805 23.7822C30.3494 23.7822 31.1364 25.2807 31.1364 27.4767V36.2196H36.5751Z" fill="white"/>
<path d="M78 24C78 10.7452 88.7452 0 102 0C115.255 0 126 10.7452 126 24C126 37.2548 115.255 48 102 48C88.7452 48 78 37.2548 78 24Z" fill="#55ACEE"/>
<path d="M101.281 19.5075L101.332 20.338L100.492 20.2363C97.4369 19.8465 94.7677 18.5245 92.5013 16.3043L91.3934 15.2027L91.108 16.0162C90.5036 17.8296 90.8897 19.7448 92.1488 21.0328C92.8203 21.7446 92.6692 21.8463 91.5109 21.4226C91.108 21.287 90.7554 21.1854 90.7219 21.2362C90.6044 21.3548 91.0073 22.8971 91.3262 23.5072C91.7627 24.3546 92.6524 25.1851 93.6261 25.6766L94.4487 26.0664L93.475 26.0833C92.5349 26.0833 92.5013 26.1003 92.6021 26.4562C92.9378 27.5578 94.264 28.7272 95.7413 29.2357L96.7822 29.5916L95.8756 30.1339C94.5326 30.9135 92.9546 31.3542 91.3766 31.3881C90.6211 31.405 90 31.4728 90 31.5237C90 31.6931 92.0481 32.6422 93.24 33.0151C96.8157 34.1167 101.063 33.6422 104.253 31.7609C106.519 30.422 108.785 27.7612 109.843 25.1851C110.414 23.8123 110.984 21.304 110.984 20.1007C110.984 19.3211 111.035 19.2194 111.975 18.2872C112.529 17.7449 113.049 17.1517 113.15 16.9822C113.318 16.6602 113.301 16.6602 112.445 16.9483C111.018 17.4568 110.817 17.389 111.522 16.6263C112.042 16.084 112.663 15.101 112.663 14.8129C112.663 14.762 112.411 14.8468 112.126 14.9993C111.824 15.1688 111.152 15.423 110.649 15.5756L109.742 15.8637L108.92 15.3044C108.466 14.9993 107.828 14.6604 107.493 14.5587C106.636 14.3214 105.327 14.3553 104.555 14.6265C102.456 15.3891 101.13 17.3551 101.281 19.5075Z" fill="white"/>
<path d="M156 24C156 10.7452 166.745 0 180 0C193.255 0 204 10.7452 204 24C204 37.2548 193.255 48 180 48C166.745 48 156 37.2548 156 24Z" fill="white"/>
<path d="M190.47 33.23H169.501C168.688 33.23 168.003 32.5667 168.003 31.7322V16.5833C168.003 15.7703 168.666 15.0856 169.501 15.0856H190.47C191.283 15.0856 191.967 15.7489 191.967 16.5833V31.7322C191.967 32.5667 191.304 33.23 190.47 33.23Z" fill="#E3E3E3"/>
<path opacity="0.1" d="M170.999 33.23L179.964 26.0193L180.028 25.6342L170.785 18.9798L170.763 32.9091L170.999 33.23Z" fill="#231F20"/>
<path d="M169.501 33.23C168.666 33.23 168.003 32.5667 168.003 31.7322V16.5619C168.003 15.7275 168.666 15.5777 169.501 15.5777C170.335 15.5777 170.999 15.7489 170.999 16.5619V33.23H169.501Z" fill="#D54B3D"/>
<path fill-rule="evenodd" clip-rule="evenodd" d="M168.003 16.5619C168.003 15.7489 168.666 15.5777 169.501 15.5777C170.335 15.5777 170.999 15.7275 170.999 16.5619V33.23H169.501C168.666 33.23 168.003 32.5667 168.003 31.7322V16.5619ZM170.785 16.5619C170.785 16.1126 170.571 15.7917 169.501 15.7917C168.431 15.7917 168.217 16.0912 168.217 16.5619V31.7322C168.217 32.4383 168.795 33.016 169.501 33.016H170.785V16.5619Z" fill="#D72B27"/>
<path d="M190.47 33.23H188.972V16.5192C188.972 15.6847 189.635 15.5777 190.47 15.5777C191.304 15.5777 191.967 15.6847 191.967 16.5192V31.7536C191.967 32.5667 191.304 33.23 190.47 33.23Z" fill="#D54B3D"/>
<path fill-rule="evenodd" clip-rule="evenodd" d="M188.972 16.5192C188.972 15.6847 189.635 15.5777 190.47 15.5777C191.304 15.5777 191.967 15.6847 191.967 16.5192V31.7536C191.967 32.5881 191.304 33.2514 190.47 33.2514H188.972V16.5192ZM191.754 16.5192C191.754 15.9842 191.433 15.7917 190.47 15.7917C189.507 15.7917 189.186 15.9628 189.186 16.5192V33.0374H190.47C191.176 33.0374 191.754 32.4597 191.754 31.7536V16.5192Z" fill="#D72B27"/>
<path d="M184.051 33.23L168.129 17.1842L168.966 17.5248L180.05 25.5058L191.968 16.7666V31.7536C191.968 32.5667 191.304 33.23 190.47 33.23H184.051Z" fill="url(#paint0_linear)"/>
<path d="M179.964 26.0193L168.645 17.803C167.982 17.3109 167.789 16.3694 168.281 15.7061C168.773 15.0428 169.736 14.893 170.421 15.3851L179.985 22.3391L189.614 15.2996C190.277 14.8074 191.219 14.9572 191.711 15.6419C192.203 16.3052 192.053 17.2467 191.368 17.7388L179.964 26.0193Z" fill="#D54B3D"/>
<path fill-rule="evenodd" clip-rule="evenodd" d="M189.592 15.2782C189.849 15.0856 190.17 15 190.47 15C190.94 15 191.39 15.214 191.689 15.6419C192.16 16.3266 192.01 17.2467 191.347 17.7388L179.964 26.0407L168.645 17.803C167.982 17.3108 167.789 16.3694 168.26 15.7061C168.559 15.2996 169.03 15.0856 169.501 15.0856C169.822 15.0856 170.143 15.1712 170.4 15.3637L179.964 22.3177L189.592 15.2782ZM191.518 15.7489C191.261 15.4065 190.876 15.214 190.47 15.214C190.191 15.214 189.935 15.2996 189.699 15.4493L180.092 22.4889L179.964 22.5744L179.835 22.4889L170.293 15.5563C170.079 15.3851 169.8 15.2996 169.522 15.2996C169.094 15.2996 168.688 15.5135 168.452 15.8345C168.046 16.3908 168.196 17.2039 168.773 17.6318L179.964 25.7625L191.24 17.5462C191.796 17.1183 191.925 16.3266 191.518 15.7489Z" fill="#D72B27"/>
<defs>
<linearGradient id="paint0_linear" x1="168.129" y1="33.2319" x2="191.975" y2="33.2319" gradientUnits="userSpaceOnUse">
<stop stop-opacity="0.1"/>
<stop offset="1" stop-opacity="0.2"/>
</linearGradient>
</defs>
</svg>
